<svg width="33" height="32" viewBox="0 0 33 32" fill="none" xmlns="http://www.w3.org/2000/svg">
<path d="M27.0306 25.9936H6.14658C5.04801 25.9923 3.99481 25.5553 3.218 24.7785C2.4412 24.0017 2.00422 22.9485 2.00293 21.8499V9.35069C2.00422 8.25212 2.4412 7.19891 3.218 6.4221C3.99481 5.6453 5.04801 5.20832 6.14658 5.20703H27.0306C28.1292 5.20832 29.1824 5.6453 29.9592 6.4221C30.736 7.19891 31.173 8.25212 31.1743 9.35069V21.8499C31.173 22.9485 30.736 24.0017 29.9592 24.7785C29.1824 25.5553 28.1292 25.9923 27.0306 25.9936ZM6.14658 6.6695C5.43549 6.6695 4.75352 6.95198 4.2507 7.4548C3.74788 7.95762 3.4654 8.63959 3.4654 9.35069V21.8499C3.4654 22.561 3.74788 23.243 4.2507 23.7458C4.75352 24.2486 5.43549 24.5311 6.14658 24.5311H27.0306C27.7417 24.5311 28.4237 24.2486 28.9265 23.7458C29.4293 23.243 29.7118 22.561 29.7118 21.8499V9.35069C29.7118 8.63959 29.4293 7.95762 28.9265 7.4548C28.4237 6.95198 27.7417 6.6695 27.0306 6.6695H6.14658Z" fill="#BF3243"/>
<path d="M16.5894 18.5634C15.6873 18.5649 14.8094 18.2722 14.0886 17.7298L2.70569 9.12078C2.62527 9.06434 2.55704 8.99226 2.5051 8.90886C2.45315 8.82547 2.41854 8.73245 2.40334 8.63538C2.38813 8.53831 2.39265 8.43917 2.41662 8.34388C2.44059 8.24859 2.48351 8.15911 2.54283 8.08078C2.60215 8.00245 2.67665 7.93688 2.76188 7.88799C2.8471 7.83909 2.94131 7.80787 3.03887 7.7962C3.13643 7.78452 3.23534 7.79263 3.3297 7.82003C3.42405 7.84743 3.51192 7.89357 3.58805 7.95568L14.9709 16.5745C15.4384 16.9234 16.0061 17.1119 16.5894 17.1119C17.1727 17.1119 17.7404 16.9234 18.2078 16.5745L29.5907 7.95568C29.6668 7.89357 29.7547 7.84743 29.8491 7.82003C29.9434 7.79263 30.0423 7.78452 30.1399 7.7962C30.2374 7.80787 30.3316 7.83909 30.4169 7.88799C30.5021 7.93688 30.5766 8.00245 30.6359 8.08078C30.6952 8.15911 30.7382 8.24859 30.7621 8.34388C30.7861 8.43917 30.7906 8.53831 30.7754 8.63538C30.7602 8.73245 30.7256 8.82547 30.6737 8.90886C30.6217 8.99226 30.5535 9.06434 30.4731 9.12078L19.0902 17.7298C18.3694 18.2722 17.4914 18.5649 16.5894 18.5634Z" fill="#BF3243"/>
<path d="M3.02235 23.9551C2.87404 23.9553 2.72917 23.9104 2.60697 23.8264C2.48476 23.7423 2.39099 23.6231 2.33811 23.4846C2.28522 23.346 2.27572 23.1947 2.31086 23.0506C2.346 22.9065 2.42412 22.7765 2.53486 22.6778L11.5047 14.6781C11.6495 14.5489 11.8397 14.4824 12.0335 14.4934C12.2273 14.5043 12.4088 14.5918 12.5381 14.7366C12.6674 14.8815 12.7339 15.0717 12.7229 15.2655C12.7119 15.4593 12.6244 15.6408 12.4796 15.7701L3.50984 23.7698C3.37663 23.891 3.20243 23.9572 3.02235 23.9551ZM30.156 23.9551C29.9759 23.9572 29.8017 23.891 29.6685 23.7698L20.6987 15.7701C20.5539 15.6408 20.4664 15.4593 20.4554 15.2655C20.4444 15.0717 20.5109 14.8815 20.6402 14.7366C20.7695 14.5918 20.951 14.5043 21.1448 14.4934C21.3386 14.4824 21.5289 14.5489 21.6737 14.6781L30.6386 22.6778C30.7493 22.7765 30.8274 22.9065 30.8626 23.0506C30.8977 23.1947 30.8882 23.346 30.8353 23.4846C30.7825 23.6231 30.6887 23.7423 30.5665 23.8264C30.4443 23.9104 30.2994 23.9553 30.1511 23.9551H30.156Z" fill="#BF3243"/>
</svg>
