<svg width="24" height="23" viewBox="0 0 24 23" fill="none" xmlns="http://www.w3.org/2000/svg">
<g clip-path="url(#clip0_1237_1485)">
<path d="M22.3502 5.25145C21.5438 5.59563 20.6911 5.82451 19.818 5.93104C20.7382 5.39646 21.4264 4.55083 21.7525 3.55387C20.8905 4.05365 19.9476 4.40595 18.9645 4.59563C18.3621 3.96454 17.5793 3.52548 16.7181 3.33566C15.857 3.14583 14.9573 3.21403 14.1364 3.53137C13.3154 3.8487 12.6111 4.40048 12.1154 5.11482C11.6196 5.82916 11.3552 6.67297 11.3567 7.53633C11.3567 7.87752 11.3853 8.20473 11.4583 8.51656C9.70915 8.43277 7.99783 7.98876 6.43627 7.21357C4.87471 6.43838 3.49808 5.34949 2.39644 4.01812C2.01756 4.66135 1.79451 5.39828 1.79451 6.19113C1.79451 7.68036 2.57945 9.00039 3.74756 9.76528C3.05223 9.74647 2.37167 9.56473 1.76306 9.23531V9.28145C1.76387 10.2745 2.11472 11.2368 2.75645 12.0063C3.39818 12.7758 4.29156 13.3054 5.28598 13.5058C4.92711 13.6037 4.53536 13.6499 4.13074 13.6499C3.84908 13.6499 3.56598 13.6345 3.29862 13.5757C3.58301 14.429 4.13059 15.1752 4.86612 15.7117C5.60164 16.2483 6.48902 16.549 7.40631 16.5724C5.85026 17.7634 3.9306 18.4094 1.95465 18.407C1.59435 18.407 1.24835 18.3916 0.902344 18.3483C2.91316 19.6151 5.25605 20.2853 7.64794 20.278C15.7389 20.278 20.1612 13.7226 20.1612 8.04113C20.1604 7.85599 20.1551 7.67089 20.1455 7.48599C21.0129 6.87811 21.7599 6.12093 22.3502 5.25145V5.25145Z" stroke="#BF3243" stroke-width="1.2" stroke-miterlimit="10" stroke-linecap="round" stroke-linejoin="round"/>
</g>
<defs>
<clipPath id="clip0_1237_1485">
<rect width="22.8761" height="22.3734" fill="white" transform="translate(0.188477)"/>
</clipPath>
</defs>
</svg>
