<svg width="31" height="31" viewBox="0 0 31 31" fill="none" xmlns="http://www.w3.org/2000/svg">
<path fill-rule="evenodd" clip-rule="evenodd" d="M15.9941 3.86133C9.6214 3.86133 4.44824 8.92079 4.44824 15.1535C4.44824 17.3532 5.07302 19.4552 6.29758 21.2884L4.54821 25.0768C4.39826 25.419 4.44824 25.8345 4.69815 26.1278C4.89808 26.3478 5.17298 26.47 5.47288 26.47C5.57284 26.47 5.64781 26.47 5.74778 26.4456L10.5961 25.1502C12.2705 26.0301 14.1448 26.4945 16.0441 26.4945C22.4168 26.4945 27.59 21.435 27.59 15.2023C27.54 8.92079 22.3669 3.86133 15.9941 3.86133ZM15.9941 24.4902C14.2947 24.4902 12.6453 24.0503 11.1958 23.2193C11.0459 23.1215 10.871 23.0726 10.696 23.0726C10.596 23.0726 10.5211 23.0726 10.4211 23.097L7.24724 23.9525L8.34685 21.5817C8.4968 21.2639 8.44682 20.8728 8.24689 20.604C7.07231 19.0153 6.44753 17.1332 6.44753 15.1535C6.44753 10.0207 10.746 5.81667 15.9941 5.81667C21.2423 5.81667 25.5407 9.99623 25.5407 15.1535C25.5407 20.2862 21.2672 24.4902 15.9941 24.4902Z" fill="#BF3243"/>
<path fill-rule="evenodd" clip-rule="evenodd" d="M20.4426 16.841C19.9678 16.5477 19.318 16.2299 18.7682 16.4743C18.3433 16.6454 18.0435 17.3298 17.7686 17.672C17.6186 17.8431 17.4437 17.8675 17.2187 17.7942C15.5693 17.1587 14.3198 16.0833 13.4201 14.6167C13.2702 14.3968 13.2951 14.2012 13.4701 13.9813C13.745 13.6635 14.0949 13.2969 14.1698 12.8814C14.2448 12.4659 14.0449 11.9526 13.8699 11.586C13.645 11.0971 13.3951 10.4128 12.8953 10.1439C12.4454 9.89948 11.8457 10.0217 11.4458 10.3639C10.7461 10.926 10.3962 11.8059 10.4212 12.6614C10.4212 12.9058 10.4462 13.1502 10.5211 13.3947C10.6711 13.9568 10.921 14.4945 11.2459 15.0078C11.4708 15.3989 11.7207 15.7655 11.9956 16.1077C12.8703 17.2809 13.9699 18.283 15.2195 19.0407C15.8442 19.4073 16.544 19.7495 17.2437 19.9695C18.0435 20.2139 18.7432 20.4828 19.5929 20.3361C20.4926 20.165 21.3673 19.6273 21.7171 18.7963C21.8171 18.5519 21.8671 18.2586 21.8171 18.0142C21.6422 17.4276 20.8924 17.1098 20.4426 16.841Z" fill="#BF3243"/>
</svg>
