<svg width="193" height="72" viewBox="0 0 193 72" fill="none" xmlns="http://www.w3.org/2000/svg">
<g clipPath="url(#clip0_137_102)">
<path d="M125.559 12.9996C125.773 12.9538 125.982 12.8833 126.179 12.7896C128.999 11.4996 127.339 6.67959 124.389 6.99959C124.087 7.03221 123.793 7.11679 123.519 7.24959C121.789 8.05959 121.739 10.1496 122.619 11.6096C122.905 12.1175 123.341 12.5241 123.868 12.7731C124.395 13.0221 124.986 13.1013 125.559 12.9996Z" fill="#E5E5E5"/>
<path d="M37.1594 12.9996C37.3739 12.9553 37.5821 12.8848 37.7794 12.7896C40.5894 11.4996 38.9994 6.67959 35.9994 6.99959C35.694 7.03207 35.3963 7.11662 35.1194 7.24959C33.3994 8.05959 33.3494 10.1496 34.2294 11.6096C34.5121 12.1177 34.9464 12.5248 35.4717 12.774C35.997 13.0232 36.5871 13.1021 37.1594 12.9996Z" fill="#E5E5E5"/>
<path d="M192.32 26.6999C192.018 25.8641 191.492 25.1272 190.8 24.5699C187.07 21.1199 182.09 18.7099 177.02 19.1399C173.597 19.5723 170.396 21.0695 167.87 23.4199C165.04 25.8599 163.52 28.7899 161.43 31.7699C160.984 32.4271 160.452 33.0222 159.85 33.5399C159.4 33.9613 158.83 34.2336 158.22 34.3199C157.924 34.3471 157.627 34.3083 157.348 34.2062C157.07 34.1042 156.818 33.9415 156.61 33.7299C156.138 33.2894 155.817 32.7125 155.69 32.0799C155.513 31.3552 155.406 30.6151 155.37 29.8699C155.321 29.2041 155.321 28.5357 155.37 27.8699C155.43 27.2632 155.46 26.8732 155.46 26.6999C156.513 26.4498 157.524 26.0454 158.46 25.4999C159.235 25.0368 159.942 24.468 160.56 23.8099C161.104 23.218 161.549 22.5428 161.88 21.8099C162.191 21.1244 162.38 20.3902 162.44 19.6399C162.528 18.966 162.456 18.2808 162.23 17.6399C162.033 17.1182 161.718 16.6492 161.31 16.2699C160.925 15.9237 160.477 15.6554 159.99 15.4799C159.531 15.3085 159.049 15.2041 158.56 15.1699C157.145 15.035 155.732 15.4545 154.62 16.3399C153.454 17.2618 152.511 18.4341 151.86 19.7699C151.13 21.2476 150.634 22.8298 150.39 24.4599C150.264 25.2844 150.19 26.1161 150.17 26.9499C150.17 27.0199 150.08 27.1099 150.03 27.1799C149.526 27.8154 148.917 28.36 148.23 28.7899C147.621 29.1656 146.939 29.4076 146.23 29.4999C145.573 29.585 144.906 29.5025 144.29 29.2599C144.51 28.7099 144.76 28.0299 145.05 27.2599C145.34 26.4899 145.61 25.5799 145.88 24.6799C146.15 23.7799 146.39 22.9099 146.6 22.0499C146.781 21.303 146.912 20.5446 146.99 19.7799C147.092 18.9806 146.964 18.1688 146.62 17.4399C146.367 16.8961 145.922 16.4652 145.37 16.2299C144.825 16.0408 144.229 16.0622 143.7 16.2899C143.004 16.5976 142.413 17.1015 142 17.7399C141.446 18.5539 141.065 19.4728 140.88 20.4399C140.62 21.5982 140.496 22.7829 140.51 23.9699C140.523 25.145 140.698 26.3127 141.03 27.4399C141.281 28.4228 141.817 29.3098 142.57 29.9899C142.163 30.9042 141.689 31.7867 141.15 32.6299C140.783 33.2419 140.289 33.7673 139.7 34.1699C139.496 34.3114 139.253 34.3872 139.005 34.3872C138.756 34.3872 138.514 34.3114 138.31 34.1699C137.702 33.6048 137.295 32.8571 137.15 32.0399C136.788 30.8153 136.541 29.56 136.41 28.2899C136.278 26.9876 136.232 25.6782 136.27 24.3699C136.309 23.0691 136.439 21.7726 136.66 20.4899C136.857 19.2745 137.141 18.0748 137.51 16.8999C137.686 16.4395 137.686 15.9303 137.51 15.4699C137.266 15.0009 136.881 14.6199 136.41 14.3799C135.84 14.0399 133.28 13.2999 132.78 14.2399C132.499 14.7949 132.278 15.3782 132.12 15.9799C131.871 16.8902 131.681 17.8154 131.55 18.7499C131.376 19.9624 131.283 21.1851 131.27 22.4099C131.254 23.6234 131.324 24.8364 131.48 26.0399C131.441 26.1069 131.407 26.1772 131.38 26.2499C131.07 26.8399 130.76 27.4599 130.38 28.0799C130 28.6999 129.7 29.3099 129.38 29.8799C129.078 30.3777 128.744 30.8554 128.38 31.3099C128.176 31.6034 127.914 31.8519 127.61 32.0399C127.39 32.1499 127.24 32.0399 127.16 31.7199C126.991 30.8979 126.931 30.0575 126.98 29.2199C126.98 28.0499 126.98 26.8099 127.06 25.4899C127.14 24.1699 127.14 22.9099 127.2 21.7099C127.26 20.5099 127.28 19.6499 127.28 19.0999C127.297 18.3867 127.043 17.6935 126.57 17.1599C126.169 16.7194 125.653 16.4006 125.08 16.2399C124.586 16.099 124.063 16.099 123.57 16.2399C123.364 16.2854 123.177 16.3951 123.037 16.5531C122.897 16.7112 122.81 16.9096 122.79 17.1199L122.56 23.9399C121.938 25.7177 121.109 27.416 120.09 28.9999C119.48 29.9299 117.49 32.8999 115.91 32.6199C114.48 32.3699 115.4 15.6199 115.8 13.6199L117.24 13.9399C119.03 14.3799 120.88 10.9399 119.42 10.5499L116.42 9.80991C116.55 7.58991 117.1 5.39991 117 2.80991C117 1.80991 114.47 -0.190086 112.35 -0.0200858C111 0.0999142 110.76 2.91991 110.35 8.97991C107.11 8.61991 101.95 8.64991 99.6898 9.38991C98.1098 9.90991 98.9298 12.1499 99.4498 12.1199C103.126 11.9709 106.809 12.1617 110.45 12.6899C110.35 14.2199 110.23 15.8899 110.12 17.7599C109.99 20.0499 109.89 22.3299 109.83 24.6199C109.63 26.3408 109.069 28.0001 108.183 29.489C107.297 30.978 106.107 32.263 104.69 33.2599C108.69 30.7599 107.96 21.1899 106.44 18.0099C106.119 17.2645 105.622 16.6082 104.992 16.0977C104.361 15.5872 103.616 15.2379 102.82 15.0799C98.8198 14.3299 95.5198 19.3799 95.5198 19.5399C95.5198 18.1699 95.7998 16.5399 95.2798 15.4399C94.8898 14.5799 90.9798 12.9799 90.8698 14.9999C90.8698 15.2599 90.8698 19.5499 90.8698 24.4799C90.8698 24.5399 90.2598 26.1099 89.8698 26.9399C89.4798 27.7699 89.1198 28.5999 88.6898 29.4299C88.2628 30.2424 87.7852 31.0273 87.2598 31.7799C86.8137 32.4341 86.2861 33.0289 85.6898 33.5499C85.2367 33.967 84.6689 34.2387 84.0598 34.3299C83.7629 34.3586 83.4633 34.3205 83.183 34.2184C82.9027 34.1164 82.6488 33.9529 82.4398 33.7399C81.9721 33.2966 81.6511 32.7209 81.5198 32.0899C81.3427 31.3652 81.2355 30.6251 81.1998 29.8799C81.1513 29.2141 81.1513 28.5457 81.1998 27.8799C81.2598 27.2732 81.2898 26.8832 81.2898 26.7099C82.3434 26.4598 83.3543 26.0554 84.2898 25.5099C85.0649 25.0468 85.7717 24.478 86.3898 23.8199C86.9334 23.2256 87.382 22.551 87.7198 21.8199C88.0228 21.1323 88.2087 20.3988 88.2698 19.6499C88.3581 18.976 88.2862 18.2908 88.0598 17.6499C87.8631 17.1308 87.5521 16.6625 87.1498 16.2799C86.7594 15.9363 86.3083 15.6684 85.8198 15.4899C85.3605 15.3185 84.8789 15.2141 84.3898 15.1799C82.9745 15.045 81.5621 15.4645 80.4498 16.3499C79.2843 17.2718 78.341 18.4441 77.6898 19.7799C76.9641 21.2594 76.4684 22.8409 76.2198 24.4699C76.2198 24.7899 76.1398 25.0999 76.1098 25.4099C75.9198 25.8799 75.7198 26.4099 75.4898 26.9199C75.1398 27.7499 74.7398 28.5699 74.3098 29.3899C73.8843 30.183 73.4135 30.9509 72.8998 31.6899C72.4599 32.346 71.9316 32.9382 71.3298 33.4499C70.8665 33.8615 70.2993 34.1382 69.6898 34.2499C69.3763 34.2898 69.0579 34.2513 68.7629 34.1379C68.4679 34.0245 68.2058 33.8396 67.9998 33.5999C67.4889 33.1377 67.1386 32.5247 66.9998 31.8499C66.8208 31.099 66.7203 30.3316 66.6998 29.5599C66.6421 28.6083 66.6823 27.6533 66.8198 26.7099C66.8407 26.0693 66.9278 25.4326 67.0798 24.8099C67.2598 24.0299 67.4798 23.2399 67.7398 22.4399C67.9898 21.6399 68.2898 20.8499 68.6098 20.0699C68.8741 19.3994 69.2094 18.7591 69.6098 18.1599C69.8751 17.7405 70.2435 17.3962 70.6798 17.1599C71.0198 17.0199 71.3398 17.1599 71.6798 17.5499C71.8524 17.7878 71.9874 18.0509 72.0798 18.3299C72.1954 18.6558 72.2856 18.9901 72.3498 19.3299C72.4205 19.6594 72.4673 19.9936 72.4898 20.3299C72.4898 20.6399 72.4898 20.9099 72.4898 21.1199C72.4758 21.3663 72.5387 21.6109 72.6698 21.8199C72.7142 21.8896 72.7745 21.9477 72.8458 21.9895C72.9171 22.0312 72.9973 22.0554 73.0798 22.0599C73.1633 22.0538 73.2444 22.0291 73.3171 21.9876C73.3898 21.9461 73.4522 21.8888 73.4998 21.8199C73.6628 21.5775 73.7498 21.292 73.7498 20.9999C73.9766 19.6314 73.7483 18.2262 73.0998 16.9999C72.839 16.563 72.49 16.1853 72.0751 15.8909C71.6601 15.5964 71.1883 15.3918 70.6898 15.2899C69.6035 15.0932 68.4827 15.2473 67.4898 15.7299C66.2505 16.3156 65.1778 17.2027 64.3698 18.3099C63.3355 19.7149 62.5849 21.3079 62.1598 22.9999C61.8301 24.2602 61.6621 25.5573 61.6598 26.8599C60.9247 29.474 59.6809 31.9173 57.9998 34.0499C57.6898 34.3899 57.4598 34.4799 57.2598 34.4399C56.4198 34.2799 57.7998 21.0499 57.7998 17.6399C57.7998 15.3899 54.2198 15.4499 52.9098 16.4599C51.4298 17.5699 48.4498 24.0799 47.7598 25.5599C47.7598 24.1599 47.9798 22.8099 47.8598 21.4099C47.8684 21.0124 47.7305 20.6256 47.4723 20.3232C47.2141 20.0207 46.8538 19.8238 46.4598 19.7699C45.7293 19.5505 44.9791 19.4032 44.2198 19.3299C43.9382 19.3042 43.6562 19.3747 43.4198 19.5299C42.9798 19.7899 43.0998 21.4299 43.0098 23.9999C43.0098 24.6999 43.0098 25.3999 42.9498 26.0899C42.9498 26.0899 42.9498 26.0899 42.9498 26.1399C42.6398 26.7299 42.3298 27.3499 41.9498 27.9699C41.5698 28.5899 41.2698 29.1999 40.9498 29.7699C40.6478 30.2677 40.3137 30.7454 39.9498 31.1999C39.7432 31.4911 39.4816 31.7391 39.1798 31.9299C38.9598 32.0399 38.8098 31.9299 38.7298 31.6099C38.5619 30.7879 38.498 29.9479 38.5398 29.1099C38.5398 27.9399 38.5398 26.6999 38.6298 25.3799C38.7198 24.0599 38.7098 22.7999 38.7698 21.5999C38.8298 20.3999 38.8498 19.5399 38.8498 18.9899C38.8622 18.2775 38.6091 17.586 38.1398 17.0499C37.7394 16.6094 37.223 16.2906 36.6498 16.1299C36.3191 16.0154 35.9663 15.9793 35.6192 16.0244C35.2721 16.0696 34.9403 16.1947 34.6498 16.3899C34.3198 16.6899 34.3098 16.9099 34.2198 17.4999C31.4298 33.5699 24.9998 27.8199 16.8498 22.6999C10.2398 18.5799 1.56982 25.9299 -0.000180502 28.9199C-0.100181 29.0599 9.23982 18.7399 17.5098 24.5999C24.5098 29.5999 30.2398 32.5999 33.7798 25.8099L33.8898 31.6499C33.8872 32.5477 34.0464 33.4386 34.3598 34.2799C34.6036 35.0155 35.0593 35.6626 35.6698 36.1399C35.9446 36.3435 36.2613 36.4832 36.5969 36.549C36.9325 36.6147 37.2785 36.6048 37.6098 36.5199C38.5788 36.2075 39.4184 35.5856 39.9998 34.7499C40.8732 33.6301 41.6462 32.4354 42.3098 31.1799C42.4898 30.8499 42.6698 30.4899 42.8598 30.1299C42.8598 31.0599 42.8598 31.4599 42.8598 32.3999C42.8151 33.1654 42.9309 33.9318 43.1998 34.6499C43.5267 35.1969 44.0137 35.6303 44.595 35.8914C45.1763 36.1526 45.8238 36.2288 46.4498 36.1099C46.8351 36.0913 47.2039 35.9474 47.4998 35.6999C47.6373 35.5008 47.7322 35.2755 47.7786 35.0381C47.8251 34.8006 47.8221 34.5561 47.7698 34.3199L47.7098 32.4199C47.7098 31.1899 47.7098 30.4199 47.7798 29.1999C48.1898 28.1999 48.6698 27.1999 49.2098 26.1399C50.4398 23.7999 51.0098 21.6499 52.4898 19.4599C52.5898 19.3199 52.7498 19.1499 52.9198 19.2099C53.0898 19.2699 53.0698 19.5099 53.0598 19.6899C53.0598 22.2699 52.4398 31.0499 52.4198 32.8899C52.4198 34.5799 52.6198 36.0699 53.8998 36.6099C54.5973 36.8928 55.3573 36.9853 56.1023 36.8782C56.8473 36.771 57.5504 36.4679 58.1398 35.9999C58.8094 35.3113 59.3997 34.5499 59.8998 33.7299C60.4834 32.7936 61.0142 31.8254 61.4898 30.8299C61.6098 30.5799 61.7198 30.3299 61.8298 30.0799C61.9788 31.4389 62.4596 32.7404 63.2298 33.8699C63.9304 34.9375 64.9533 35.7538 66.1498 36.1999C66.7596 36.4594 67.4164 36.5897 68.079 36.5829C68.7416 36.576 69.3956 36.432 69.9998 36.1599C71.2533 35.5437 72.356 34.6595 73.2298 33.5699C74.2404 32.3279 75.0966 30.968 75.7798 29.5199C75.8698 29.3399 75.9398 29.1699 76.0198 28.9799C76.0198 29.1199 76.0198 29.2599 76.0198 29.3999C76.2092 30.9137 76.6879 32.3769 77.4298 33.7099C78.0825 34.9176 79.1471 35.8509 80.4298 36.3399C81.3137 36.7125 82.2884 36.8134 83.2298 36.6299C84.1216 36.4363 84.9629 36.0582 85.6998 35.5199C86.507 34.9371 87.2218 34.2359 87.8198 33.4399C88.4794 32.5889 89.0744 31.6897 89.5998 30.7499C90.0198 29.9899 90.3898 29.2099 90.7298 28.4299C90.7298 31.3599 90.7298 34.1999 90.6598 36.2899C88.9998 39.7499 86.2798 45.9999 87.9198 49.1999C88.5898 50.4999 92.0198 51.5899 93.6698 49.4499C94.1885 48.6299 94.5292 47.71 94.6698 46.7499C94.9798 45.0299 95.0598 36.3099 95.1398 31.7499C95.1398 25.7499 95.2698 27.9699 95.4698 21.9999C95.4698 21.5199 98.7798 17.6899 100.67 19.3299C102.74 21.0999 102.97 29.1099 101.04 31.6099C99.1098 34.1099 96.6098 32.1299 96.6098 32.1599C96.2198 32.2599 96.4098 32.8299 96.6098 33.0099C102.11 39.0099 107.18 34.6099 109.75 30.3099C109.9 33.0199 110.54 35.8299 112.96 36.7499C113.591 36.9491 114.26 36.9995 114.914 36.8972C115.568 36.7948 116.19 36.5425 116.73 36.1599C118.73 34.8199 120.11 32.3399 121.31 30.2799C121.67 29.6599 122.03 29.0399 122.38 28.3999L122.27 31.6399C122.267 32.5377 122.426 33.4286 122.74 34.2699C122.968 35.0029 123.406 35.653 124 36.1399C124.275 36.3435 124.591 36.4832 124.927 36.549C125.263 36.6147 125.609 36.6048 125.94 36.5199C126.911 36.2074 127.754 35.5858 128.34 34.7499C129.213 33.6301 129.986 32.4354 130.65 31.1799C131.03 30.4899 131.41 29.6999 131.81 28.8299C131.96 29.4799 132.14 30.1299 132.34 30.7699C132.707 31.9716 133.221 33.1236 133.87 34.1999C134.374 35.0718 135.055 35.8281 135.87 36.4199C136.209 36.6697 136.598 36.8429 137.011 36.9275C137.424 37.0121 137.85 37.0061 138.26 36.9099C139.336 36.6111 140.294 35.9857 141 35.1199C142.135 33.7446 143.052 32.2033 143.72 30.5499C144.535 30.873 145.418 30.9898 146.29 30.8899C147.199 30.794 148.076 30.5005 148.86 30.0299C149.376 29.7183 149.856 29.3493 150.29 28.9299C150.29 29.0899 150.29 29.2499 150.29 29.3999C150.479 30.9137 150.958 32.3769 151.7 33.7099C152.352 34.9176 153.417 35.8509 154.7 36.3399C155.584 36.7125 156.558 36.8134 157.5 36.6299C160.43 35.9899 162.12 33.7199 163.62 31.3199C166.19 27.2399 169.37 22.8999 174.31 21.6899C176.675 21.1345 179.155 21.3346 181.401 22.262C183.647 23.1893 185.545 24.7974 186.83 26.8599C187.53 27.9699 188.18 29.3099 189.44 29.6799C189.847 29.7914 190.276 29.7908 190.683 29.6782C191.09 29.5655 191.458 29.345 191.75 29.0399C192.02 28.7429 192.216 28.3856 192.32 27.9977C192.425 27.6098 192.435 27.2025 192.35 26.8099C192.335 26.7747 192.325 26.7378 192.32 26.6999ZM156.81 20.2099C157.229 19.3054 157.886 18.5313 158.71 17.9699C158.958 17.8 159.25 17.7041 159.551 17.6935C159.852 17.6828 160.15 17.7579 160.41 17.9099C160.661 18.1042 160.851 18.3673 160.956 18.6673C161.06 18.9673 161.076 19.2913 161 19.5999C160.891 20.3971 160.619 21.1631 160.2 21.8499C159.832 22.4508 159.362 22.9822 158.81 23.4199C158.294 23.8167 157.733 24.1523 157.14 24.4199C156.621 24.6677 156.083 24.8717 155.53 25.0299C155.647 23.3566 156.081 21.7207 156.81 20.2099ZM82.5998 20.2099C83.0172 19.3151 83.6706 18.5511 84.4898 17.9999C84.7384 17.83 85.0302 17.7341 85.3311 17.7235C85.6321 17.7128 85.9299 17.7879 86.1898 17.9399C86.4449 18.1317 86.6385 18.3938 86.7468 18.6939C86.8552 18.9941 86.8736 19.3194 86.7998 19.6299C86.6913 20.4271 86.4189 21.1931 85.9998 21.8799C85.6323 22.4778 85.1656 23.0087 84.6198 23.4499C84.1002 23.8468 83.5365 24.1824 82.9398 24.4499C82.4217 24.6992 81.883 24.9032 81.3298 25.0599C81.4392 23.3769 81.8703 21.7305 82.5998 20.2099ZM90.5998 39.4199C90.4498 40.9999 90.4698 47.1799 89.1298 46.7299C88.6998 46.5899 88.7298 45.4899 88.8598 44.4299C89.3113 42.4526 89.9062 40.5108 90.6398 38.6199C90.6298 38.9999 90.6198 39.2499 90.5998 39.4199ZM143.09 28.4999C142.633 27.9167 142.327 27.2297 142.2 26.4999C142.007 25.5693 141.916 24.6203 141.93 23.6699C141.946 22.6893 142.05 21.7121 142.24 20.7499C142.368 19.9502 142.658 19.1849 143.09 18.4999C143.308 18.1455 143.61 17.8501 143.97 17.6399C144.094 17.5629 144.234 17.514 144.379 17.4967C144.524 17.4794 144.671 17.4942 144.81 17.5399C144.947 17.6043 145.069 17.6974 145.168 17.813C145.266 17.9286 145.338 18.0639 145.38 18.2099C145.532 18.684 145.586 19.1841 145.54 19.6799C145.501 20.3984 145.394 21.1117 145.22 21.8099C145.03 22.6199 144.81 23.4499 144.55 24.2999C144.29 25.1499 144.03 25.9399 143.77 26.6999C143.51 27.4599 143.29 27.9999 143.09 28.4999Z" fill="#E5E5E5"/>
<path d="M134.186 41.0416C134.326 41.0591 134.44 41.129 134.527 41.2513C134.614 41.3562 134.641 41.4786 134.606 41.6184C134.588 41.7408 134.518 41.8457 134.396 41.9331C131.687 43.8733 129.213 45.7087 126.976 47.4393C127.203 48.1559 127.229 48.9425 127.054 49.7991C126.775 51.2149 126.259 52.5959 125.507 53.9418C124.773 55.2878 123.925 56.4677 122.964 57.4815C122.02 58.4954 121.015 59.3956 119.949 60.1822C118.9 60.9688 117.895 61.5718 116.933 61.9914C115.99 62.4109 115.159 62.6469 114.443 62.6993C114.338 62.7168 114.242 62.7255 114.154 62.7255C113.315 62.7255 112.782 62.4109 112.555 61.7816C112.153 60.6804 113.088 58.8712 115.36 56.3541C117.633 53.8369 121.094 50.7605 125.743 47.1246C125.219 46.1632 124.188 45.2805 122.649 44.4764C121.111 43.6548 118.681 42.5711 115.36 41.2251C114.451 40.858 113.752 40.5696 113.263 40.3599C112.004 39.8355 111.13 39.1275 110.641 38.236C110.151 37.3446 110.09 36.322 110.457 35.1683C110.912 33.7 112.013 32.1093 113.761 30.3963C115.509 28.6657 117.414 27.1537 119.477 25.8602C121.557 24.5667 123.646 23.5354 125.743 22.7662C127.858 21.9971 129.493 21.7437 130.647 22.0059C130.909 22.0583 131.145 22.1457 131.354 22.2681C131.582 22.3729 131.809 22.539 132.036 22.7662C132.263 22.9935 132.421 23.3081 132.508 23.7102C132.613 24.0947 132.631 24.5579 132.561 25.0998C132.543 25.1872 132.508 25.2659 132.456 25.3358C132.403 25.4057 132.333 25.4582 132.246 25.4931C132.159 25.5281 132.071 25.5368 131.984 25.5193C131.844 25.5019 131.73 25.4407 131.643 25.3358C131.555 25.2134 131.521 25.0823 131.538 24.9425C131.643 24.2957 131.582 23.8325 131.354 23.5528C131.145 23.2732 130.839 23.0896 130.437 23.0022C129.79 22.8449 128.916 22.8973 127.815 23.1595C126.714 23.4217 125.481 23.8675 124.118 24.4968C122.772 25.1086 121.4 25.8689 120.001 26.7779C117.746 28.1938 115.85 29.6796 114.311 31.2353C112.773 32.791 111.812 34.1982 111.427 35.4567C110.85 37.2572 111.593 38.5856 113.656 39.4422C114.128 39.6344 114.827 39.9141 115.754 40.2812C116.907 40.7532 117.764 41.1115 118.323 41.3562C118.882 41.5835 119.617 41.8981 120.526 42.3001C121.435 42.6847 122.134 43.0168 122.623 43.2965C123.113 43.5762 123.646 43.8996 124.223 44.2666C124.799 44.6337 125.271 45.0008 125.639 45.3679C126.006 45.7175 126.311 46.0933 126.556 46.4953C128.759 44.7823 131.18 42.9906 133.819 41.1202C133.942 41.0328 134.064 41.0066 134.186 41.0416ZM126.084 49.5893C126.189 49.0649 126.198 48.5755 126.11 48.121C122.387 51.0401 119.433 53.6097 117.248 55.8297C115.972 57.1407 114.993 58.3031 114.311 59.3169C113.63 60.3482 113.359 61.0562 113.499 61.4407C113.569 61.6505 113.857 61.7379 114.364 61.7029C114.958 61.6505 115.684 61.432 116.54 61.0474C117.414 60.6629 118.341 60.1035 119.319 59.3694C120.316 58.6352 121.26 57.7962 122.151 56.8522C123.06 55.9258 123.873 54.8158 124.59 53.5223C125.306 52.2463 125.805 50.9353 126.084 49.5893ZM155.673 31.7597C155.76 31.8646 155.795 31.9869 155.778 32.1268C155.76 32.2666 155.69 32.3802 155.568 32.4676C155.358 32.6075 155.157 32.5987 154.965 32.4414C154.126 32.1443 148.235 32.118 137.293 32.3628C136.156 37.1348 135.003 42.3089 133.832 47.885C132.433 54.6148 131.585 59.2383 131.288 61.7554C131.323 61.7554 131.358 61.7641 131.393 61.7816C131.533 61.8166 131.629 61.8952 131.682 62.0176C131.734 62.1574 131.734 62.2885 131.682 62.4109C131.594 62.6906 131.524 62.8916 131.472 63.0139C131.402 63.1538 131.306 63.2849 131.183 63.4072C131.061 63.5471 130.93 63.617 130.79 63.617C130.738 63.617 130.677 63.6083 130.607 63.5908C130.379 63.5209 130.248 63.3373 130.213 63.0402C130.161 62.743 130.178 62.341 130.266 61.834C130.336 61.0999 130.493 60.0423 130.738 58.6614C131.175 56.0394 131.83 52.6308 132.704 48.4356C133.875 42.7721 135.055 37.4232 136.244 32.389C135.055 32.4065 133.578 32.4414 131.813 32.4939C129.016 32.5638 127.373 32.5987 126.883 32.5987C126.744 32.5987 126.63 32.555 126.542 32.4676C126.438 32.3628 126.385 32.2404 126.385 32.1006C126.385 32.0132 126.411 31.9345 126.464 31.8646C126.499 31.7772 126.56 31.716 126.647 31.681C126.717 31.6286 126.796 31.6024 126.883 31.6024C127.373 31.6024 129.007 31.5587 131.786 31.4713C133.517 31.4363 135.09 31.4014 136.506 31.3664C137.065 29.059 137.564 27.1013 138.001 25.4931C138.036 25.3533 138.114 25.2484 138.237 25.1785C138.359 25.1086 138.481 25.0911 138.604 25.126C138.744 25.161 138.848 25.2397 138.918 25.362C138.988 25.4844 139.006 25.6155 138.971 25.7553C138.551 27.311 138.071 29.1727 137.529 31.3402C142.773 31.2003 146.732 31.1479 149.406 31.1829C152.081 31.2178 153.759 31.279 154.441 31.3664C155.14 31.4363 155.551 31.5674 155.673 31.7597ZM147.094 41.5135C147.234 41.4786 147.356 41.4961 147.461 41.566C147.583 41.6359 147.662 41.7408 147.697 41.8806C147.732 42.0205 147.715 42.1428 147.645 42.2477C147.435 42.5798 147.208 42.9382 146.963 43.3227C146.718 43.6898 146.351 44.1967 145.862 44.8435C145.39 45.4902 144.935 46.0583 144.498 46.5478C144.061 47.0197 143.589 47.4393 143.082 47.8063C142.575 48.1734 142.138 48.357 141.771 48.357C141.632 48.357 141.509 48.3307 141.404 48.2783C140.565 47.9637 140.329 46.6264 140.696 44.2666C140.12 45.0532 139.595 45.6476 139.123 46.0496C138.441 46.6264 137.847 46.6964 137.34 46.2594C136.868 45.8748 136.658 45.1931 136.711 44.2142C136.746 43.2353 137.026 42.2914 137.55 41.3824C137.62 41.2601 137.725 41.1814 137.865 41.1465C138.004 41.1115 138.136 41.129 138.258 41.1989C138.38 41.2688 138.459 41.3737 138.494 41.5135C138.529 41.6359 138.511 41.7583 138.441 41.8806C138.144 42.3701 137.935 42.8857 137.812 43.4276C137.707 43.9695 137.672 44.424 137.707 44.791C137.76 45.1406 137.847 45.3679 137.969 45.4728C138.057 45.5602 138.223 45.499 138.468 45.2892C138.922 44.9047 139.49 44.2142 140.172 43.2178C140.294 43.0605 140.382 42.9469 140.434 42.877C140.504 42.7896 140.583 42.6934 140.67 42.5886C140.758 42.4662 140.827 42.3875 140.88 42.3526C140.932 42.3176 140.994 42.2827 141.063 42.2477C141.133 42.1953 141.203 42.1778 141.273 42.1953C141.343 42.1953 141.422 42.2127 141.509 42.2477C141.736 42.3351 141.859 42.5361 141.876 42.8508C141.894 43.1479 141.85 43.5412 141.745 44.0307C141.553 44.9921 141.474 45.7262 141.509 46.2331C141.562 46.7401 141.605 47.0547 141.64 47.1771C141.675 47.2819 141.719 47.3344 141.771 47.3344C141.824 47.3693 141.911 47.3519 142.034 47.2819C142.173 47.2295 142.331 47.1334 142.506 46.9935C142.698 46.8537 142.908 46.6789 143.135 46.4691C143.362 46.2419 143.616 45.9709 143.895 45.6563C144.192 45.3417 144.49 45.0008 144.787 44.6337C145.084 44.2492 145.407 43.8122 145.757 43.3227C146.106 42.8158 146.447 42.2827 146.779 41.7233C146.849 41.6009 146.954 41.531 147.094 41.5135ZM157.619 25.3358C158.073 25.7903 157.846 27.3984 156.937 30.1603C156.867 30.37 156.771 30.6585 156.649 31.0255C156.264 32.1967 155.949 33.1319 155.705 33.8311C155.46 34.5303 155.075 35.5092 154.551 36.7677C154.027 38.0263 153.458 39.2324 152.847 40.3861C152.34 42.7983 151.859 45.3679 151.405 48.0948C150.618 52.7619 150.198 55.9258 150.146 57.5864C150.286 57.534 150.426 57.534 150.566 57.5864C150.688 57.6563 150.767 57.7525 150.802 57.8748C150.854 58.0147 150.854 58.1458 150.802 58.2681C150.487 58.9324 150.172 59.2645 149.858 59.2645C149.788 59.2645 149.718 59.2557 149.648 59.2383C149.456 59.1683 149.316 59.0372 149.228 58.845C149.158 58.6702 149.123 58.2856 149.123 57.6913C149.141 57.1144 149.22 56.2579 149.359 55.1217C149.569 53.3038 149.919 50.909 150.408 47.9374C150.688 46.3118 150.976 44.7299 151.273 43.1916C150.732 44.0656 150.155 44.9396 149.543 45.8136C148.389 47.4917 147.384 48.0948 146.528 47.6228C145.968 47.2208 145.697 46.5128 145.715 45.499C145.732 44.4677 145.986 43.4276 146.475 42.3788C147.052 41.1552 147.734 40.255 148.52 39.6781C149.307 39.1013 150.006 38.909 150.618 39.1013C151.23 39.2761 151.579 39.7306 151.667 40.4647C151.754 40.3249 151.833 40.1851 151.903 40.0452C152.829 35.6577 153.756 32.1355 154.682 29.4786C155.626 26.8041 156.395 25.3708 156.989 25.1785C157.234 25.0911 157.444 25.1435 157.619 25.3358ZM148.73 45.2368C149.552 44.0481 150.303 42.8595 150.985 41.6709C150.723 41.5835 150.618 41.4087 150.67 41.1465C150.74 40.4997 150.627 40.1326 150.33 40.0452C150.295 40.0452 150.242 40.0452 150.172 40.0452C149.805 40.0452 149.351 40.2899 148.809 40.7794C148.284 41.2513 147.812 41.9331 147.393 42.8245C147.113 43.4014 146.921 43.9957 146.816 44.6075C146.729 45.2018 146.711 45.6913 146.764 46.0758C146.816 46.4429 146.912 46.6614 147.052 46.7313C147.105 46.7663 147.183 46.7663 147.288 46.7313C147.41 46.6789 147.603 46.5303 147.865 46.2856C148.127 46.0234 148.416 45.6738 148.73 45.2368ZM155.967 29.8456C156.316 28.7794 156.57 27.8704 156.727 27.1188C155.871 28.9192 154.953 31.7247 153.974 35.5354C154.464 34.3467 155.032 32.7473 155.678 30.7371C155.801 30.3526 155.897 30.0554 155.967 29.8456ZM161.931 41.1989C162.071 41.1639 162.202 41.1814 162.325 41.2513C162.447 41.3213 162.517 41.4261 162.534 41.566C162.569 41.7058 162.552 41.8369 162.482 41.9593C161.992 42.7284 161.398 43.5325 160.699 44.3715C160.017 45.1931 159.239 45.936 158.365 46.6002C157.509 47.2645 156.783 47.5966 156.189 47.5966C155.979 47.5966 155.796 47.5616 155.638 47.4917C154.467 46.9848 154.345 44.9309 155.271 41.33C155.306 41.1902 155.385 41.0853 155.507 41.0154C155.63 40.9454 155.752 40.928 155.874 40.9629C156.014 40.9979 156.119 41.0765 156.189 41.1989C156.259 41.3213 156.277 41.4436 156.242 41.566C156.032 42.405 155.874 43.1479 155.77 43.7947C155.682 44.424 155.638 44.9047 155.638 45.2368C155.656 45.5689 155.691 45.8486 155.743 46.0758C155.813 46.2856 155.866 46.4167 155.901 46.4691C155.953 46.5041 155.997 46.5303 156.032 46.5478C156.486 46.7401 157.308 46.2856 158.496 45.1843C159.703 44.0831 160.743 42.8245 161.617 41.4087C161.704 41.3038 161.809 41.2339 161.931 41.1989ZM156.137 39.1537C155.63 39.1188 155.472 38.909 155.665 38.5245C155.84 38.2098 156.067 38.0001 156.346 37.8952C156.783 37.7553 157.046 37.869 157.133 38.236C157.22 38.5856 157.089 38.8478 156.74 39.0226C156.565 39.11 156.364 39.1537 156.137 39.1537ZM170.091 41.4087C170.231 41.3912 170.353 41.4261 170.458 41.5135C170.581 41.6009 170.651 41.7146 170.668 41.8544C170.686 41.9942 170.651 42.1166 170.563 42.2215C169.847 43.1479 168.99 43.8733 167.994 44.3977C166.997 44.9221 166.062 45.0882 165.188 44.8959C164.943 45.4902 164.603 45.9622 164.166 46.3118C163.729 46.6439 163.274 46.81 162.802 46.81H162.776C162.304 46.7925 161.884 46.6352 161.517 46.338C161.168 46.0234 160.923 45.5951 160.783 45.0532C160.556 44.1967 160.6 43.3839 160.914 42.6148C161.211 41.8282 161.648 41.2513 162.225 40.8843C162.348 40.7969 162.487 40.7794 162.645 40.8318C162.802 40.4473 163.021 40.1501 163.3 39.9403C163.597 39.7306 163.903 39.6519 164.218 39.7044C164.393 39.7393 164.55 39.818 164.69 39.9403C164.847 40.0452 164.996 40.22 165.136 40.4647C165.293 40.7095 165.407 41.0853 165.477 41.5922C165.546 42.0991 165.564 42.7022 165.529 43.4014C165.511 43.5762 165.485 43.751 165.45 43.9258C166.115 44.0656 166.849 43.8996 167.653 43.4276C168.474 42.9556 169.174 42.3438 169.75 41.5922C169.838 41.4873 169.951 41.4261 170.091 41.4087ZM162.802 45.7874C163.047 45.7874 163.3 45.6738 163.562 45.4465C163.842 45.2193 164.069 44.9134 164.244 44.5288C163.108 43.8996 162.514 43.043 162.461 41.9593C162.112 42.2914 161.867 42.7371 161.727 43.2965C161.605 43.8559 161.613 44.3453 161.753 44.7648C161.946 45.4465 162.295 45.7874 162.802 45.7874ZM164.506 43.3489C164.541 42.9294 164.541 42.5711 164.506 42.2739C164.489 41.9593 164.463 41.7058 164.428 41.5135C164.393 41.3213 164.349 41.1639 164.297 41.0416C164.244 40.9192 164.192 40.8318 164.139 40.7794C164.104 40.7269 164.078 40.7007 164.061 40.7007H164.034C163.965 40.7007 163.877 40.7619 163.772 40.8843C163.667 40.9891 163.589 41.1377 163.536 41.33C163.431 41.6971 163.449 42.0729 163.589 42.4575C163.729 42.842 164.034 43.1916 164.506 43.5063C164.506 43.4538 164.506 43.4014 164.506 43.3489Z" fill="#BF3243"/>
</g>
<defs>
<clipPath id="clip0_137_102">
<rect width="192.4" height="71.86" fill="white"/>
</clipPath>
</defs>
</svg>
